<?xml version="1.0" standalone="no"?><!DOCTYPE svg PUBLIC "-//W3C//DTD SVG 1.1//EN" "http://www.w3.org/Graphics/SVG/1.1/DTD/svg11.dtd"><svg t="1547110889866" class="icon" style="" viewBox="0 0 1024 1024" version="1.1" xmlns="http://www.w3.org/2000/svg" p-id="9309" xmlns:xlink="http://www.w3.org/1999/xlink" width="200" height="200"><defs><style type="text/css"></style></defs><path d="M512 146.285714q-74.285714 0-142 29.142857t-116.571429 78-78 116.571429-29.142857 142 29.142857 142 78 116.571429 116.571429 78 142 29.142857 142-29.142857 116.571429-78 78-116.571429 29.142857-142-29.142857-142-78-116.571429-116.571429-78-142-29.142857zm438.857143 365.714286q0 119.428571-58.857143 220.285714t-159.714286 159.714286-220.285714 58.857143-220.285714-58.857143-159.714286-159.714286-58.857143-220.285714 58.857143-220.285714 159.714286-159.714286 220.285714-58.857143 220.285714 58.857143 159.714286 159.714286 58.857143 220.285714z" p-id="9310"></path></svg>